<?xml version="1.0" standalone="no"?><!DOCTYPE svg PUBLIC "-//W3C//DTD SVG 1.1//EN" "http://www.w3.org/Graphics/SVG/1.1/DTD/svg11.dtd"><svg t="1669713382137" class="icon" viewBox="0 0 1024 1024" version="1.1" xmlns="http://www.w3.org/2000/svg" p-id="10891" xmlns:xlink="http://www.w3.org/1999/xlink" width="200" height="200"><path d="M539.818667 387.114667c-35.626667 0-67.093333 16.554667-93.589334 51.328-28.16 34.794667-42.24 76.202667-42.24 125.056 0 22.357333 4.970667 39.744 15.744 53.013333s26.496 19.882667 47.210667 19.882667c20.714667 0 41.408-8.298667 61.290667-24.853334 19.882667-16.554667 33.130667-36.437333 39.744-57.984l18.218666-67.904c4.970667-21.525333 8.277333-34.773333 8.277334-39.744 0-14.912-4.970667-28.16-14.08-38.933333-10.752-13.248-24.021333-19.861333-40.576-19.861333z" fill="#333333" p-id="10892"></path><path d="M514.133333 79.68c-235.648 0-426.666667 191.018667-426.666666 426.666667s191.018667 426.666667 426.666666 426.666666 426.666667-191.018667 426.666667-426.666666c0-235.626667-191.018667-426.666667-426.666667-426.666667z m187.178667 695.018667c-52.992 25.685333-111.808 38.912-177.237333 38.912-99.392 0-177.237333-27.328-234.389334-81.984-58.794667-56.32-87.786667-130.026667-87.786666-222.784 0-86.976 28.992-159.018667 87.786666-216.981334 61.290667-62.122667 139.136-92.757333 234.389334-92.757333 86.122667 0 154.858667 25.685333 205.376 77.845333 46.378667 47.210667 69.568 106.005333 69.568 177.216 0 59.648-19.050667 112.64-55.488 160.682667-36.437333 45.546667-76.202667 68.736-119.253334 68.736-34.794667 0-53.845333-18.218667-57.152-54.677333-28.16 37.269333-62.954667 56.32-104.341333 56.32-34.773333 0-62.954667-12.416-84.48-35.626667-21.525333-23.189333-32.298667-52.992-32.298667-88.597333 0-61.290667 18.218667-115.114667 56.32-159.850667 36.437333-44.714667 78.677333-66.24 128.362667-66.24 39.744 0 66.261333 20.714667 79.509333 62.122667l12.416-46.378667h53.824L617.664 566.826667c-6.613333 24-9.941333 40.576-9.941333 50.517333 0 13.269333 7.445333 20.714667 23.189333 20.714667 25.685333 0 51.349333-16.554667 77.013333-48.853334 29.802667-38.101333 44.714667-82.816 44.714667-134.165333 0-58.816-19.882667-107.669333-59.626667-146.602667-43.072-42.24-101.056-62.954667-172.266666-62.954666-76.202667 0-139.136 24.853333-188.842667 75.370666-48.853333 49.706667-72.874667 113.472-72.874667 189.653334 0 83.648 24.021333 148.245333 73.706667 193.792 46.378667 43.072 110.144 65.429333 191.317333 65.429333 57.984 0 109.312-10.773333 152.384-31.466667 38.101333-19.050667 68.736-44.714667 91.925334-77.845333h57.984c-28.970667 49.685333-70.378667 87.765333-125.034667 114.282667z" fill="#333333" p-id="10893"></path></svg>