<?xml version="1.0" standalone="no"?><!DOCTYPE svg PUBLIC "-//W3C//DTD SVG 1.1//EN" "http://www.w3.org/Graphics/SVG/1.1/DTD/svg11.dtd"><svg class="icon" width="20px" height="20.00px" viewBox="0 0 1024 1024" version="1.1" xmlns="http://www.w3.org/2000/svg"><path d="M418.7136 797.0816H287.3344c-42.24 0-76.4928-34.2528-76.4928-76.4928V211.9168h207.872v585.1648z" fill="#ffa115" /><path d="M930.5088 777.8304H872.96V289.1264c0-62.1056-50.5344-112.64-112.64-112.64H223.9488V113.1008c0-16.9472-13.7728-30.72-30.72-30.72s-30.72 13.7728-30.72 30.72v63.3856H95.1808c-16.9472 0-30.72 13.7728-30.72 30.72s13.7728 30.72 30.72 30.72h67.328v488.704c0 62.1056 50.5344 112.64 112.64 112.64H811.52v69.2736c0 16.9472 13.7728 30.72 30.72 30.72s30.72-13.7728 30.72-30.72v-69.2736h57.4976c16.9472 0 30.72-13.7728 30.72-30.72s-13.7216-30.72-30.6688-30.72z m-655.36 0c-28.2112 0-51.2-22.9888-51.2-51.2V237.9264H760.32c28.2112 0 51.2 22.9888 51.2 51.2v488.704H275.1488z" fill="#474A54" /><path d="M693.248 513.4336c-16.9472 0-30.72 13.7728-30.72 30.72v147.712c0 16.9472 13.7728 30.72 30.72 30.72s30.72-13.7728 30.72-30.72v-147.712c0-16.9984-13.7728-30.72-30.72-30.72z" fill="#474A54" /></svg>
