<svg viewBox="0 0 1024 1024" version="1.1" xmlns="http://www.w3.org/2000/svg" p-id="4948" width="18" height="18"><path d="M1000.192 306.592l-265.76-50.128c-15.744-2.928-30.976 8.176-33.92 24.96l-76 434.496c-1.376 7.744 0.096 15.68 4.08 22.24l29.92 49.344c3.04-3.264 6.72-6.096 10.928-8.064 18.368-8.816 40.208-0.544 48.816 18.528 8.624 19.072 0.528 41.728-17.84 50.656-1.264 0.656-2.624 1.2-3.888 1.632l38.64 63.744c9.024 14.928 28.144 18.528 41.68 7.84l159.2-125.728a31.2 31.2 0 0 0 11.328-19.28l76.128-434.512c2.944-16.768-7.456-32.8-23.312-35.728z" fill="#59D892" p-id="4949"></path><path d="M642.656 199.76L544 213.328l118.944 568.48c18.112-8.624 39.536-0.448 47.92 18.288 8.384 18.832 0.528 41.232-17.6 50.048-4.96 2.368-10.144 3.552-15.312 3.552l5.28 25.088 47.52 41.344c14.592 12.688 36.128 9.68 46.992-6.464l128.256-191.184c4.768-7.104 6.832-15.92 5.696-24.752L853.2 240.32l-4.336-34.112c-2.4-18.944-18.848-32.4-36.64-29.92l-169.568 23.456z" fill="#F87470" p-id="4950"></path><path d="M911.68 684.32l-58.48-452.192L642.64 192 544 205.408l118.944 562.048c18.112-8.512 39.536-0.432 47.92 18.08 8.384 18.64 0.528 40.768-17.6 49.504-4.96 2.336-10.144 3.504-15.312 3.504l5.28 24.8 47.52 40.864c14.592 12.56 36.128 9.584 46.992-6.384l128.256-189.008c4.768-7.136 6.832-15.856 5.696-24.48z" fill="#E64F4B" p-id="4951"></path><path d="M859.952 624.864L673.328 245.92l-123.136-23.088 123.136 23.088-55.312-112.448c-9.328-19.008-31.68-26.848-50.032-17.6l-307.744 155.616c-18.24 9.232-25.552 32.112-16.112 51.12l241.936 491.376c4.352 8.704 11.664 15.472 20.56 19.008l146.352 57.04-237.808-692.64L652.976 889.92l91.456 35.552c20.256 7.84 42.288-3.328 48.224-24.384l69.952-248.208c2.544-9.344 1.584-19.328-2.656-28.032zM700.032 849.76a36.992 36.992 0 0 1-49.28-18.24 37.824 37.824 0 0 1 18.016-49.952c18.56-8.8 40.592-0.544 49.28 18.256a37.824 37.824 0 0 1-18.016 49.936z" fill="#F0BA53" p-id="4952"></path><path d="M860 622.624L673.728 240.912 416 192l237.328 697.664 91.28 35.808c20.192 7.888 42.192-3.36 48.112-24.56l69.808-250.048a40.096 40.096 0 0 0-2.544-28.24z m-159.6 226.56c-18.512 8.768-40.512 0.544-49.184-18.4-8.672-18.928-0.528-41.44 17.984-50.304 18.496-8.864 40.496-0.528 49.168 18.4 8.672 18.928 0.528 41.44-17.968 50.304z" fill="#E8A017" p-id="4953"></path><path d="M780.32 592.96a44.752 44.752 0 0 0-11.712-29.568L352.96 109.952c-16-17.504-42.56-18.688-59.2-2.72L12.832 377.712C-3.808 393.76-4.336 420.992 11.68 438.48l415.648 453.552c7.36 8.096 17.376 12.96 28.016 13.824l284.624 22.016c24.112 1.84 44.336-17.6 44.032-42.416l-3.68-292.48zM689.6 847.888c-18.416 8.752-40.32 0.544-48.96-18.352-8.64-18.88-0.528-41.344 17.904-50.192 18.432-8.864 40.336-0.544 48.976 18.352 8.64 18.88 0.528 41.344-17.92 50.192z" fill="#7ACDFC" p-id="4954"></path></svg>